<?xml version="1.0" encoding="utf-8"?>
<!-- Generator: Adobe Illustrator 21.0.2, SVG Export Plug-In . SVG Version: 6.00 Build 0)  -->
<svg version="1.1" id="Camada_1" xmlns="http://www.w3.org/2000/svg" xmlns:xlink="http://www.w3.org/1999/xlink" x="0px" y="0px"
	 viewBox="0 0 800 800" style="enable-background:new 0 0 800 800;" xml:space="preserve">
<style type="text/css">
	.st0{fill:#FFFFFF;}
</style>
<g id="Interface__x2F__External_x5F_Link">
	<g id="Vector">
		<path class="st0" d="M526.8,669.8H273.2c-41.7,0-64.7,0-86.7-11.2c-19.5-9.9-35.1-25.5-45.1-45.1c-11.2-22.1-11.2-45.1-11.2-86.8
			V273.3c0-41.8,0-64.8,11.2-86.9c10-19.5,25.5-35.1,45.1-45.1c22.1-11.2,45.1-11.2,86.8-11.2h60c20.2,0,36.5,16.3,36.5,36.5
			s-16.3,36.5-36.5,36.5h-60c-27.4,0-47.3,0-53.7,3.3c-5.7,2.9-10.3,7.5-13.2,13.2c-3.3,6.5-3.3,26.3-3.3,53.7v253.3
			c0,27.4,0,47.2,3.3,53.7c2.9,5.7,7.5,10.3,13.2,13.2c6.4,3.3,26.2,3.3,53.6,3.3h253.5c27.4,0,47.1,0,53.6-3.3
			c5.6-2.9,10.3-7.6,13.2-13.2c3.3-6.4,3.3-26.2,3.3-53.6v-60.1c0-20.2,16.3-36.5,36.5-36.5s36.5,16.3,36.5,36.5v60.1
			c0,41.7,0,64.7-11.2,86.7c-10,19.5-25.6,35.1-45.1,45.1C591.4,669.8,568.5,669.8,526.8,669.8z M433.3,403.2
			c-9.3,0-18.7-3.6-25.8-10.7c-14.3-14.3-14.3-37.4,0-51.6l171-171H500c-20.2,0-36.5-16.3-36.5-36.5s16.3-36.5,36.5-36.5h166.6
			c0.1,0,0.2,0,0.3,0c0,0,0,0,0,0c0,0,0,0,0,0c4.6,0,9.1,1,13.2,2.6c4.5,1.8,8.6,4.5,12.3,8.1c3.5,3.5,6.2,7.6,7.9,11.9
			c1.7,4.2,2.7,8.8,2.7,13.6c0,0,0,0,0,0c0,0,0,0,0,0c0,0,0,0,0,0c0,0,0,0,0,0c0,0,0,0,0,0.1c0,0,0,0,0,0c0,0.1,0,0.1,0,0.2V300
			c0,20.2-16.3,36.5-36.5,36.5s-36.5-16.3-36.5-36.5v-78.5l-171,171C452,399.6,442.7,403.2,433.3,403.2z"/>
	</g>
</g>
</svg>
