<?xml version="1.0" encoding="utf-8"?>
<!-- Generator: Adobe Illustrator 21.0.2, SVG Export Plug-In . SVG Version: 6.00 Build 0)  -->
<svg version="1.1" id="Camada_1" xmlns="http://www.w3.org/2000/svg" xmlns:xlink="http://www.w3.org/1999/xlink" x="0px" y="0px"
	 viewBox="0 0 198 49.8" style="enable-background:new 0 0 198 49.8;" xml:space="preserve">
<style type="text/css">
	.st0{fill:#FFFFFF;}
</style>
<title>Prancheta 1</title>
<g>
	<g id="SYMBOL">
		<g id="Vector">
			<path class="st0" d="M34.6,33.6l7.7-7.7l2-6.7l-9.7,9.7V33.6z"/>
			<path class="st0" d="M7.2,11.6l17.3,17.3v4.7l2.3-2.3l2.7,2.7v4.7l2.3-2.3l4.8,4.8l1.3-3.3L5.2,4.9L7.2,11.6z"/>
			<path class="st0" d="M11.6,25.9l8,8l-3.8,3.8l1.3,3.3l4.9-4.8l2.7,2.7l-6,6h4.7l3.7-3.7l3.7,3.7h4.7L9.6,19.2L11.6,25.9z"/>
			<path class="st0" d="M29.6,23.9v4.7l17-17l2-6.7L29.6,23.9z"/>
		</g>
	</g>
	<g>
		<path class="st0" d="M57.4,5.2h3.1v18.3h-3.1V5.2z"/>
		<path class="st0" d="M63.7,5.2h2.7L75,17.6V5.2h3.1v18.3h-2.6l-8.7-12.4v12.4h-3.1V5.2z"/>
		<path class="st0" d="M87.3,5.2c1.3,0,2.5,0.2,3.6,0.7C92,6.3,93,6.9,93.8,7.7c0.8,0.8,1.4,1.8,1.9,2.9c0.5,1.1,0.7,2.3,0.7,3.6
			c0,1.3-0.2,2.5-0.7,3.7c-0.5,1.1-1.1,2.1-1.9,2.9c-0.8,0.8-1.8,1.5-2.9,1.9c-1.1,0.5-2.3,0.7-3.6,0.7h-6V5.2H87.3z M87.5,20.6
			c1.7,0,3-0.6,4.2-1.8c1.1-1.2,1.7-2.7,1.7-4.5c0-1.8-0.5-3.3-1.7-4.4c-1.1-1.2-2.5-1.7-4.2-1.7h-3.2v12.5H87.5z"/>
		<path class="st0" d="M99,5.2h3.1v18.3H99V5.2z"/>
		<path class="st0" d="M113.8,23.8c-1.3,0-2.5-0.2-3.6-0.7c-1.1-0.5-2.1-1.1-2.9-2c-0.8-0.8-1.5-1.8-1.9-3c-0.5-1.2-0.7-2.4-0.7-3.7
			c0-1.3,0.2-2.6,0.7-3.7c0.5-1.2,1.1-2.2,1.9-3c0.8-0.8,1.8-1.5,2.9-2c1.1-0.5,2.4-0.7,3.6-0.7c1.4,0,2.7,0.3,3.9,0.8
			s2.3,1.3,3.1,2.3c0.8,1,1.3,2.1,1.5,3.3h-3.4c-0.3-1-0.9-1.9-1.9-2.5c-0.9-0.7-2-1-3.3-1c-1.7,0-3.2,0.6-4.3,1.8
			c-1.2,1.2-1.7,2.8-1.7,4.6c0,1.8,0.6,3.4,1.7,4.6c1.2,1.2,2.6,1.9,4.3,1.9c1.2,0,2.3-0.3,3.3-1c1-0.7,1.6-1.6,1.8-2.7h3.4
			c-0.4,2-1.3,3.6-2.9,4.9C117.8,23.1,116,23.8,113.8,23.8z"/>
		<path class="st0" d="M137,23.5l-1.4-3.7h-7.8l-1.4,3.7h-3.2l7.3-18.3h2.6l7.3,18.3H137z M129,16.9h5.5l-2.7-7L129,16.9z"/>
		<path class="st0" d="M148.1,5.2c1.3,0,2.5,0.2,3.6,0.7c1.1,0.5,2.1,1.1,2.9,1.9c0.8,0.8,1.4,1.8,1.9,2.9c0.5,1.1,0.7,2.3,0.7,3.6
			c0,1.3-0.2,2.5-0.7,3.7c-0.5,1.1-1.1,2.1-1.9,2.9c-0.8,0.8-1.8,1.5-2.9,1.9c-1.1,0.5-2.3,0.7-3.6,0.7h-6V5.2H148.1z M148.3,20.6
			c1.7,0,3-0.6,4.2-1.8c1.1-1.2,1.7-2.7,1.7-4.5c0-1.8-0.6-3.3-1.7-4.4c-1.1-1.2-2.5-1.7-4.2-1.7h-3.2v12.5H148.3z"/>
		<path class="st0" d="M163.7,6.1c1.4-0.8,3-1.2,4.7-1.2c1.7,0,3.3,0.4,4.7,1.2c1.4,0.8,2.5,1.9,3.3,3.4c0.8,1.4,1.2,3,1.2,4.8
			c0,1.8-0.4,3.4-1.2,4.8c-0.8,1.4-1.9,2.6-3.3,3.4c-1.4,0.8-3,1.2-4.7,1.2c-1.7,0-3.3-0.4-4.7-1.2c-1.4-0.8-2.5-2-3.4-3.4
			c-0.8-1.4-1.2-3.1-1.2-4.8c0-1.8,0.4-3.4,1.2-4.8C161.2,8.1,162.3,7,163.7,6.1z M168.5,7.9c-1.7,0-3.2,0.6-4.4,1.8
			c-1.2,1.2-1.8,2.8-1.8,4.6c0,1.8,0.6,3.4,1.8,4.6c1.2,1.2,2.6,1.9,4.4,1.9c1.7,0,3.2-0.6,4.4-1.9c1.2-1.2,1.8-2.8,1.8-4.6
			c0-1.8-0.6-3.4-1.8-4.6C171.7,8.5,170.2,7.9,168.5,7.9z"/>
		<path class="st0" d="M186.2,23.8c-2,0-3.6-0.6-4.9-1.7c-1.3-1.2-1.9-2.6-1.9-4.4h3c0,1,0.4,1.8,1.1,2.4c0.7,0.6,1.6,0.9,2.7,0.9
			c1,0,1.9-0.2,2.5-0.7c0.7-0.5,1-1.1,1-1.9c0-0.4-0.1-0.8-0.3-1.1c-0.2-0.3-0.5-0.6-0.9-0.8s-0.8-0.4-1.3-0.5
			c-0.5-0.2-1-0.3-1.6-0.4c-0.6-0.1-1.1-0.3-1.7-0.5c-0.6-0.2-1.1-0.4-1.6-0.6c-0.5-0.3-1-0.6-1.3-0.9c-0.4-0.3-0.7-0.8-0.9-1.4
			c-0.2-0.6-0.3-1.2-0.3-1.9c0-1.5,0.6-2.8,1.8-3.7s2.7-1.5,4.5-1.5c1,0,1.9,0.2,2.8,0.5c0.8,0.3,1.5,0.7,2,1.3
			c0.5,0.5,0.9,1.1,1.2,1.8c0.3,0.7,0.4,1.4,0.4,2.2H189c0-0.8-0.3-1.5-0.9-2.1c-0.6-0.5-1.4-0.8-2.4-0.8c-0.9,0-1.7,0.2-2.2,0.6
			c-0.6,0.4-0.9,1-0.9,1.6c0,0.4,0.1,0.8,0.3,1.1c0.2,0.3,0.5,0.5,0.9,0.7c0.4,0.2,0.8,0.3,1.3,0.5s1,0.3,1.6,0.4
			c0.6,0.1,1.1,0.3,1.7,0.5c0.6,0.2,1.1,0.4,1.6,0.7c0.5,0.3,1,0.6,1.3,1c0.4,0.4,0.7,0.9,0.9,1.4s0.3,1.3,0.3,2c0,1-0.3,2-0.9,2.8
			c-0.6,0.8-1.4,1.5-2.4,2C188.6,23.5,187.4,23.8,186.2,23.8z"/>
		<path class="st0" d="M70.7,26.3v2.9h-5.6v15.4h-3.1V29.3h-5.6v-2.9H70.7z"/>
		<path class="st0" d="M88.8,34.4c0.1,0.5,0.1,1.1,0.1,1.7c0,1.7-0.4,3.2-1.2,4.6c-0.8,1.3-1.8,2.4-3.2,3.1
			c-1.4,0.7-2.9,1.1-4.5,1.1c-1.3,0-2.5-0.2-3.7-0.7c-1.1-0.5-2.1-1.1-2.9-2c-0.8-0.8-1.5-1.8-1.9-3c-0.5-1.2-0.7-2.4-0.7-3.7
			c0-1.3,0.2-2.6,0.7-3.7c0.5-1.2,1.1-2.2,1.9-3c0.8-0.8,1.8-1.5,2.9-2c1.1-0.5,2.4-0.7,3.7-0.7c1.3,0,2.6,0.3,3.9,0.8
			c1.2,0.6,2.3,1.3,3.1,2.2c0.8,0.9,1.3,1.9,1.6,3H85c-0.3-0.9-1-1.6-1.9-2.2c-1-0.6-2-0.9-3.1-0.9c-1.7,0-3.2,0.6-4.3,1.8
			c-1.2,1.2-1.7,2.8-1.7,4.6c0,1.2,0.3,2.3,0.8,3.3c0.5,1,1.3,1.8,2.2,2.3c1,0.6,2,0.9,3.2,0.9c1.4,0,2.7-0.4,3.7-1.3
			c1-0.8,1.7-2,1.9-3.3H80v-3H88.8z"/>
		<path class="st0" d="M102.8,44.7l-1.4-3.7h-7.8l-1.4,3.7h-3.2l7.3-18.3h2.6l7.3,18.3H102.8z M94.8,38.1h5.5l-2.7-7L94.8,38.1z"/>
		<path class="st0" d="M107.3,44.7v-2.2l6.4-6.3c0.7-0.7,1.2-1.2,1.6-1.7c0.4-0.4,0.7-0.9,0.9-1.3c0.2-0.5,0.3-0.9,0.3-1.4
			c0-0.8-0.3-1.4-0.9-1.9c-0.6-0.5-1.3-0.8-2.1-0.8c-1,0-1.9,0.3-2.4,1c-0.6,0.7-0.9,1.6-0.8,2.7h-3.1c-0.1-2,0.5-3.6,1.7-4.8
			c1.2-1.2,2.8-1.8,4.7-1.8c1.8,0,3.2,0.5,4.4,1.6c1.1,1.1,1.7,2.4,1.7,4c0,1.1-0.3,2.1-1,3.1c-0.6,1-1.6,2.1-2.8,3.3l-3.6,3.6h7.5
			v3H107.3z"/>
		<path class="st0" d="M128.3,44.9c-1.4,0-2.7-0.4-3.7-1.2c-1-0.8-1.8-1.9-2.4-3.3c-0.5-1.4-0.8-3.1-0.8-5c0-1.9,0.3-3.6,0.8-5
			c0.5-1.4,1.3-2.5,2.4-3.3c1-0.8,2.3-1.2,3.7-1.2c2.2,0,3.9,0.9,5.1,2.6c1.2,1.7,1.8,4,1.8,6.9c0,2.9-0.6,5.2-1.8,6.9
			C132.2,44.1,130.5,44.9,128.3,44.9z M128.3,41.9c1.2,0,2.1-0.5,2.8-1.6c0.7-1.1,1-2.7,1-4.8c0-2.1-0.3-3.7-1-4.8
			c-0.7-1.1-1.6-1.6-2.8-1.6c-1.2,0-2.1,0.5-2.8,1.6c-0.7,1.1-1,2.7-1,4.8c0,2.1,0.3,3.7,1,4.8C126.2,41.4,127.1,41.9,128.3,41.9z"
			/>
		<path class="st0" d="M136.7,44.7v-2.2l6.4-6.3c0.7-0.7,1.2-1.2,1.6-1.7c0.4-0.4,0.6-0.9,0.9-1.3c0.2-0.5,0.3-0.9,0.3-1.4
			c0-0.8-0.3-1.4-0.9-1.9c-0.6-0.5-1.3-0.8-2.1-0.8c-1,0-1.9,0.3-2.4,1c-0.6,0.7-0.9,1.6-0.8,2.7h-3.1c-0.1-2,0.5-3.6,1.7-4.8
			c1.2-1.2,2.8-1.8,4.7-1.8c1.8,0,3.2,0.5,4.4,1.6c1.1,1.1,1.7,2.4,1.7,4c0,1.1-0.3,2.1-1,3.1c-0.6,1-1.6,2.1-2.8,3.3l-3.6,3.6h7.5
			v3H136.7z"/>
		<path class="st0" d="M156.6,44.9c-1.1,0-2.2-0.2-3.1-0.6s-1.7-1-2.3-1.8c-0.6-0.8-0.9-1.8-1-2.8h3.1c0.2,0.7,0.5,1.3,1.1,1.7
			c0.6,0.4,1.3,0.6,2.2,0.6c0.9,0,1.7-0.3,2.3-0.9c0.6-0.6,1-1.4,1-2.3c0-1-0.3-1.8-0.9-2.4c-0.6-0.6-1.4-1-2.4-1
			c-0.6,0-1.2,0.1-1.7,0.3c-0.5,0.2-0.9,0.5-1.2,0.8H151l0.8-10.1h10v2.9h-7.3l-0.4,4.5c0.3-0.3,0.8-0.5,1.3-0.7
			c0.5-0.2,1.1-0.3,1.6-0.3c1.7,0,3.2,0.5,4.3,1.6c1.1,1.1,1.7,2.5,1.7,4.3c0,1.7-0.6,3.2-1.9,4.4C159.9,44.3,158.4,44.9,156.6,44.9
			z"/>
	</g>
</g>
</svg>
