<?xml version="1.0" encoding="utf-8"?>
<!-- Generator: Adobe Illustrator 21.0.2, SVG Export Plug-In . SVG Version: 6.00 Build 0)  -->
<svg version="1.1" id="Capa_1" xmlns="http://www.w3.org/2000/svg" xmlns:xlink="http://www.w3.org/1999/xlink" x="0px" y="0px"
	 viewBox="0 0 800 800" style="enable-background:new 0 0 800 800;" xml:space="preserve">
<style type="text/css">
	.st0{fill:#FFFFFF;}
</style>
<g>
	<path class="st0" d="M452.2,153.6H50c-27.6,0-50,22.4-50,50v272.9c0,27.6,22.4,50,50,50h134.8v66h-21.3c-14.9,0-26.9,12-26.9,26.9
		c0,14.9,12,26.9,26.9,26.9h175.1c14.9,0,26.9-12,26.9-26.9c0-14.9-12-26.9-26.9-26.9h-21.3v-66h134.8c27.6,0,50-22.4,50-50V203.6
		C502.2,176,479.8,153.6,452.2,153.6z M448.5,472.9H53.7V207.3h394.7V472.9z"/>
	<path class="st0" d="M772.1,224.9H597.2c-15.4,0-27.9,12.5-27.9,27.9v365.7c0,15.4,12.5,27.9,27.9,27.9h174.8
		c15.4,0,27.9-12.5,27.9-27.9V252.8C800,237.4,787.5,224.9,772.1,224.9z M684.6,533.8c-11.7,0-21.2-9.5-21.2-21.2
		c0-11.7,9.5-21.2,21.2-21.2c11.7,0,21.2,9.5,21.2,21.2C705.8,524.3,696.3,533.8,684.6,533.8z M760.8,421.4
		c0,8.3-6.8,15.1-15.1,15.1h-122c-8.3,0-15.1-6.8-15.1-15.1v-35.9c0-8.3,6.8-15.1,15.1-15.1h122c8.3,0,15.1,6.8,15.1,15.1
		L760.8,421.4L760.8,421.4z M760.8,320.5c0,8.3-6.8,15.1-15.1,15.1h-122c-8.3,0-15.1-6.8-15.1-15.1v-35.9c0-8.3,6.8-15.1,15.1-15.1
		h122c8.3,0,15.1,6.8,15.1,15.1L760.8,320.5L760.8,320.5z"/>
</g>
</svg>
