<?xml version="1.0" encoding="utf-8"?>
<!-- Generator: Adobe Illustrator 21.0.2, SVG Export Plug-In . SVG Version: 6.00 Build 0)  -->
<svg version="1.1" id="Camada_1" xmlns="http://www.w3.org/2000/svg" xmlns:xlink="http://www.w3.org/1999/xlink" x="0px" y="0px"
	 viewBox="0 0 589.6 800" style="enable-background:new 0 0 589.6 800;" xml:space="preserve">
<style type="text/css">
	.st0{fill:#FFFFFF;}
</style>
<path class="st0" d="M348.3,694.8h90.3c82.9,0,151-68.1,151-151V256.2c0-82.9-68.1-151-151-151h-92.1c-1.8,0-3.7,1.8-3.7,3.6v582.3
	C342.7,693,344.5,694.8,348.3,694.8z M460.6,370.5c33.2,0,58.9,27.6,58.9,58.9c0,33.2-27.6,58.9-58.9,58.9
	c-33.2,0-58.9-25.7-58.9-58.9C399.8,396.4,427.4,370.5,460.6,370.5L460.6,370.5z M280,105.2H151c-82.9,0-151,68.1-151,151v287.5
	c0,82.9,68.1,151,151,151h129c1.8,0,3.7-1.8,3.7-3.6V108.8C283.8,107,281.9,105.2,280,105.2z M237.7,646.9H151
	c-57.1,0-103.2-46.1-103.2-103.2V256.2c0-57.1,46.1-103.2,103.2-103.2h84.8L237.7,646.9z M92.1,282.1c0,31.3,24,55.3,55.3,55.3
	s55.3-24,55.3-55.3s-24-55.3-55.3-55.3S92.1,250.8,92.1,282.1z"/>
</svg>
