<?xml version="1.0" encoding="utf-8"?>
<!-- Generator: Adobe Illustrator 21.0.2, SVG Export Plug-In . SVG Version: 6.00 Build 0)  -->
<svg version="1.1" id="Camada_1" xmlns="http://www.w3.org/2000/svg" xmlns:xlink="http://www.w3.org/1999/xlink" x="0px" y="0px"
	 viewBox="0 0 587.6 800" style="enable-background:new 0 0 587.6 800;" xml:space="preserve">
<style type="text/css">
	.st0{fill:#FFFFFF;}
</style>
<title>xbox</title>
<path class="st0" d="M293.8,193.1c-36.9-22-80.3-37.6-126.6-44l-1.8-0.2c-1.4-0.1-3-0.2-4.6-0.2c-12,0-23.2,3.1-33,8.6l0.3-0.2
	c46.1-32,103.2-51.1,164.8-51.1c0.2,0,0.3,0,0.5,0h0.4c0.1,0,0.2,0,0.4,0c61.8,0,119,19.1,166.3,51.7l-1-0.6
	c-9.3-5.3-20.6-8.5-32.5-8.5c-1.7,0-3.3,0.1-4.9,0.2l0.2,0c-48.1,6.6-91.5,22.1-130,44.9l1.6-0.9V193.1z M89.5,190.1
	c-0.8,0.3-1.5,0.6-2.2,1.1l0,0C33.4,244.4,0,318.3,0,400.1c0,70.1,24.6,134.5,65.6,185l-0.4-0.5C30.8,520.7,152.8,340.9,214,268.5
	C145,199.6,110.8,189,96.4,189c-0.2,0-0.4,0-0.6,0c-2.2,0-4.4,0.4-6.4,1.2L89.5,190.1L89.5,190.1z M373.7,268.5
	c61.2,72.5,183.2,252.5,148.8,316.1c40.6-50,65.2-114.3,65.2-184.5c0-81.8-33.4-155.7-87.4-209l0,0c-0.6-0.4-1.2-0.8-2-1l-0.1,0
	c-2-0.7-4.2-1.1-6.6-1.1c-0.1,0-0.2,0-0.3,0h0C476.8,189,442.7,199.6,373.7,268.5L373.7,268.5z M100.4,621.2
	c51.4,45.1,119.2,72.6,193.4,72.6s142-27.5,193.7-72.9l-0.3,0.3c45.9-46.8-105.7-213.2-193.5-279.5
	C206.1,408,54.4,574.4,100.4,621.2L100.4,621.2z"/>
</svg>
