<?xml version="1.0" encoding="utf-8"?>
<!-- Generator: Adobe Illustrator 21.0.2, SVG Export Plug-In . SVG Version: 6.00 Build 0)  -->
<svg version="1.1" id="_x32_" xmlns="http://www.w3.org/2000/svg" xmlns:xlink="http://www.w3.org/1999/xlink" x="0px" y="0px"
	 viewBox="0 0 548.8 800" style="enable-background:new 0 0 548.8 800;" xml:space="preserve">
<style type="text/css">
	.st0{fill:#FFFFFF;}
</style>
<g>
	<path class="st0" d="M365.6,177.4l37.1-54.9c3.2-4.8,2-11.3-2.8-14.5c-4.8-3.2-11.3-2-14.5,2.8L347,167.5
		c-22.1-10.1-46.7-15.7-72.6-15.7c-25.9,0-50.5,5.6-72.6,15.7l-38.3-56.7c-3.2-4.8-9.8-6-14.5-2.8c-4.8,3.2-6,9.8-2.8,14.5
		l37.1,54.9c-46.6,28.5-78.8,78-83.3,135.4h348.9C444.4,255.5,412.1,205.9,365.6,177.4z M203.2,260c-13.5,0-24.4-10.9-24.4-24.4
		c0-13.5,10.9-24.4,24.4-24.4s24.4,10.9,24.4,24.4C227.6,249,216.7,260,203.2,260z M345.6,260c-13.5,0-24.4-10.9-24.4-24.4
		c0-13.5,10.9-24.4,24.4-24.4c13.5,0,24.4,10.9,24.4,24.4C370.1,249,359.1,260,345.6,260z"/>
	<path class="st0" d="M97.3,386.5v201.8c0,15.8,12.9,28.8,28.8,28.8h47.6v47.1c0,16.3,13.3,29.7,29.7,29.7
		c16.3,0,29.7-13.4,29.7-29.7V617h83.7v47.1c0,16.3,13.3,29.7,29.7,29.7c16.3,0,29.7-13.4,29.7-29.7V617h41.4
		c15.8,0,28.8-12.9,28.8-28.8V386.5v-42.7H97.3V386.5z"/>
	<path class="st0" d="M34.3,343.7C15.4,343.7,0,359.1,0,378v112.9c0,18.9,15.4,34.3,34.3,34.3s34.3-15.4,34.3-34.3V378
		C68.5,359.1,53.1,343.7,34.3,343.7z"/>
	<path class="st0" d="M514.6,343.7c-18.9,0-34.3,15.4-34.3,34.3v112.9c0,18.9,15.4,34.3,34.3,34.3c18.9,0,34.3-15.4,34.3-34.3V378
		C548.8,359.1,533.4,343.7,514.6,343.7z"/>
</g>
</svg>
