<?xml version="1.0" encoding="utf-8"?>
<!-- Generator: Adobe Illustrator 21.0.2, SVG Export Plug-In . SVG Version: 6.00 Build 0)  -->
<svg version="1.1" id="Camada_1" xmlns="http://www.w3.org/2000/svg" xmlns:xlink="http://www.w3.org/1999/xlink" x="0px" y="0px"
	 viewBox="0 0 751 800" style="enable-background:new 0 0 751 800;" xml:space="preserve">
<style type="text/css">
	.st0{fill:#FFFFFF;}
</style>
<title>ios</title>
<path class="st0" d="M3.4,315.8v264.4h62.3V315.8L3.4,315.8L3.4,315.8z M272.5,269.2c63.8,0,104.8,51,104.8,130.8
	c0,80.4-41,131.4-104.8,131.4c-64.5,0-105.2-51-105.2-131.4C167.4,320.2,208.1,269.2,272.5,269.2L272.5,269.2z M611.7,214.4
	c-78.2,0-133.9,43.2-133.9,107.3c0,51,31.6,82.9,97.9,98.3l46.6,11.3c45.4,10.3,63.8,25.4,63.8,51.3c0,30.1-30.3,51.3-73.5,51.3
	c-44.1,0-77.3-21.6-80.7-54.8h-62.6c2.5,66.3,56.9,107,139.5,107c87.3,0,142.1-42.9,142.1-111.1c0-53.5-31.3-83.8-103.9-100.4
	l-41.6-9.4c-44.1-10.6-62.3-24.7-62.3-48.5c0-30,27.5-50.1,68.2-50.1c41,0,69.2,20.4,72.3,53.8H745
	C743.5,257.3,691.2,214.5,611.7,214.4L611.7,214.4z M272.5,214.4c-105.1,0-170.9,71.7-170.9,185.6c0,114.9,65.7,186.2,170.9,186.2
	C377,586.2,443,514.8,443,400C443,286.1,377,214.4,272.5,214.4L272.5,214.4z M34.4,213.8c-0.2,0-0.4,0-0.6,0
	C15.1,213.8,0,228.9,0,247.6s15.1,33.8,33.8,33.8c0.2,0,0.4,0,0.7,0h0c0.3,0,0.6,0,0.9,0c18.7,0,33.8-15.1,33.8-33.8
	S54,213.8,35.4,213.8C35,213.8,34.7,213.8,34.4,213.8L34.4,213.8L34.4,213.8z"/>
</svg>
