<?xml version="1.0" encoding="utf-8"?>
<!-- Generator: Adobe Illustrator 21.0.2, SVG Export Plug-In . SVG Version: 6.00 Build 0)  -->
<svg version="1.1" id="Camada_1" xmlns="http://www.w3.org/2000/svg" xmlns:xlink="http://www.w3.org/1999/xlink" x="0px" y="0px"
	 viewBox="0 0 720 800" style="enable-background:new 0 0 720 800;" xml:space="preserve">
<style type="text/css">
	.st0{fill:#FFFFFF;}
</style>
<path class="st0" d="M76.9,475.6c0-117.9,58.9-240.8,128.1-240.8c38.4,0,69.2,23.1,117.9,92.2c-46.1,71.7-74.3,115.3-74.3,115.3
	c-61.5,97.4-82,117.9-115.3,117.9C99.9,562.7,76.9,531.9,76.9,475.6 M479.1,432l-43.6-71.7c-10.2-17.9-23.1-35.9-33.3-51.2
	c38.4-58.9,69.2-89.7,107.6-89.7c76.9,0,138.4,115.3,138.4,258.8c0,53.8-17.9,84.5-53.8,84.5C558.5,562.7,545.7,539.6,479.1,432
	 M368.9,257.8c-56.4-74.3-105-102.5-161.4-102.5C89.7,155.3,0,311.6,0,475.6c0,102.5,48.7,166.5,130.7,166.5
	c58.9,0,99.9-28.2,176.8-161.4c0,0,30.7-56.4,53.8-94.8c7.7,12.8,15.4,25.6,23.1,41l35.9,61.5C489.4,606.2,527.8,644.7,597,644.7
	c79.4,0,123-66.6,123-171.7c-2.6-174.2-94.8-317.7-205-317.7C456.1,155.3,409.9,201.4,368.9,257.8"/>
</svg>
