<?xml version="1.0" encoding="utf-8"?>
<!-- Generator: Adobe Illustrator 21.0.2, SVG Export Plug-In . SVG Version: 6.00 Build 0)  -->
<svg version="1.1" id="Camada_1" xmlns="http://www.w3.org/2000/svg" xmlns:xlink="http://www.w3.org/1999/xlink" x="0px" y="0px"
	 viewBox="0 0 749.7 800" style="enable-background:new 0 0 749.7 800;" xml:space="preserve">
<style type="text/css">
	.st0{fill:#FFFFFF;}
</style>
<title>playstation</title>
<path class="st0" d="M56.4,606.2c-59.4-17-69.2-52.1-42.3-72.5c19.4-12.8,41.7-23.9,65.3-32.2l2.2-0.7l175.4-62.9v72.2l-125.8,46
	c-22,8.5-25.8,19.8-7.5,25.8c9.1,2.3,19.6,3.7,30.4,3.7c15.4,0,30.1-2.7,43.7-7.7l-0.9,0.3l60.5-22V621c-3.7,0.9-8,1.4-12.2,2.3
	c-19.4,3.4-41.7,5.3-64.4,5.3c-44.4,0-87.2-7.5-126.9-21.2l2.7,0.8L56.4,606.2z M426.1,613.6l196.7-71.1
	c22.3-8.1,25.8-19.5,7.7-25.5c-9.1-2.2-19.5-3.5-30.2-3.5c-15.5,0-30.5,2.7-44.4,7.6l0.9-0.3l-131.4,46.8v-74.6l7.5-2.7
	c26.3-8.7,57.1-15.5,88.9-19l2.1-0.2c11.7-1.2,25.3-1.9,39-1.9c46.9,0,91.9,8.3,133.6,23.5l-2.7-0.9c57.7,18.8,63.7,46,49.2,64.7
	c-14,13.9-30.9,24.9-49.7,32l-1,0.3l-266.9,97.1v-71.7L426.1,613.6z M280.6,106.2v548.2l122.3,39.4V234c0-21.5,9.5-35.9,24.8-30.9
	c19.9,5.6,23.8,25.4,23.8,47v183.6c76.2,37.3,136.3-0.1,136.3-98.5c0-101.1-35.2-146.1-138.6-182.1c-44.6-16.2-101-32.4-158.7-45.1
	L280.6,106.2L280.6,106.2z"/>
</svg>
